<?xml version="1.0" standalone="no"?>
<!DOCTYPE svg PUBLIC "-//W3C//DTD SVG 20010904//EN"
 "http://www.w3.org/TR/2001/REC-SVG-20010904/DTD/svg10.dtd">
<svg version="1.0" xmlns="http://www.w3.org/2000/svg"
 width="200.000000pt" height="200.000000pt" viewBox="0 0 200.000000 200.000000"
 preserveAspectRatio="xMidYMid meet">

<g transform="translate(0.000000,200.000000) scale(0.100000,-0.100000)"
fill="#000000" stroke="none">
<path d="M720 1679 c-146 -61 -271 -116 -277 -121 -18 -14 -7 -26 38 -45 l39
-15 0 -98 c0 -70 -4 -101 -14 -109 -10 -8 -14 -42 -15 -121 -1 -106 0 -110 20
-110 16 0 19 -4 14 -17 -5 -10 -22 -59 -39 -110 -28 -81 -36 -95 -71 -118 -22
-15 -51 -37 -65 -50 -14 -13 -40 -26 -59 -30 l-33 -7 7 43 7 44 -31 -29 c-17
-16 -33 -27 -36 -25 -3 3 -11 23 -19 45 l-13 39 -7 -42 c-8 -46 -20 -52 -52
-28 -30 23 -35 18 -20 -19 17 -41 14 -46 -33 -46 -38 -1 -37 -2 16 -37 17 -11
16 -14 -15 -40 l-33 -28 47 4 c41 3 46 1 40 -14 -3 -9 -9 -29 -13 -43 l-6 -27
34 29 34 29 16 -37 c17 -38 29 -38 29 0 0 34 16 38 56 13 l36 -22 -17 32 c-9
18 -15 35 -12 37 18 18 172 -95 182 -133 9 -39 50 -97 94 -135 65 -56 209 -94
391 -104 186 -11 401 29 489 91 43 29 95 102 107 148 3 16 16 33 28 38 26 12
88 57 96 70 7 10 70 31 70 23 0 -3 -7 -19 -16 -36 -17 -32 -14 -32 38 4 l27
19 7 -36 c8 -46 21 -53 29 -15 9 42 19 44 55 13 31 -26 32 -26 26 -5 -20 70
-22 65 28 60 l47 -3 -31 25 c-16 14 -30 28 -30 32 0 3 15 15 33 27 l32 21 -36
0 c-47 0 -51 6 -34 47 20 47 20 48 -14 24 -40 -29 -48 -27 -56 17 l-7 37 -16
-35 c-9 -19 -18 -37 -19 -39 -2 -3 -13 5 -26 16 -39 35 -48 37 -37 8 18 -46
13 -55 -22 -49 -18 4 -38 13 -44 20 -15 18 -82 64 -110 74 -14 6 -24 21 -29
46 -9 50 -79 226 -116 291 -19 35 -29 67 -29 95 -1 39 -4 60 -25 153 l-6 30
106 44 c77 31 105 47 103 59 -3 15 -526 241 -558 241 -8 0 -134 -49 -280 -110z
m514 -24 c125 -52 233 -98 241 -102 10 -6 -64 -41 -231 -111 l-245 -102 -142
59 c-78 32 -160 67 -182 77 l-40 17 183 17 c173 16 226 29 195 48 -7 4 -110
-1 -231 -12 -194 -17 -286 -17 -268 1 8 8 469 201 483 202 6 1 113 -42 237
-94z m-611 -200 l35 -14 -19 -68 c-11 -37 -19 -82 -19 -99 0 -37 -9 -64 -20
-64 -5 0 -6 15 -3 33 4 24 0 37 -16 51 -18 16 -21 31 -21 98 0 86 2 89 63 63z
m711 -160 l1 -70 -53 -17 c-158 -53 -515 -44 -605 15 -22 14 -24 20 -17 64 12
73 30 133 40 133 4 0 74 -27 154 -61 l145 -61 153 64 153 65 14 -31 c7 -17 14
-62 15 -101z m-774 -40 c0 -8 -7 -15 -15 -15 -8 0 -15 7 -15 15 0 8 7 15 15
15 8 0 15 -7 15 -15z m0 -105 c0 -38 -4 -50 -15 -50 -11 0 -15 12 -15 50 0 38
4 50 15 50 11 0 15 -12 15 -50z m185 9 c39 -10 109 -21 158 -24 l87 -7 0 -299
0 -299 -80 0 c-69 0 -81 -3 -90 -20 -8 -14 -8 -26 0 -40 9 -17 21 -20 90 -20
l80 0 0 -86 0 -87 -107 6 c-230 13 -350 80 -390 216 -23 80 -20 227 6 329 30
113 71 223 87 229 8 3 14 14 14 24 0 10 10 39 22 64 16 34 26 44 38 39 8 -4
47 -15 85 -25z m679 -129 c50 -117 82 -233 92 -330 8 -78 -9 -197 -35 -249
-56 -109 -204 -170 -413 -171 l-68 0 0 85 0 84 81 3 c65 2 84 7 93 21 8 12 8
22 0 35 -9 13 -28 18 -93 20 l-81 3 0 298 0 298 114 12 c63 6 140 19 172 29
l59 18 17 -25 c10 -14 38 -73 62 -131z m-1014 -360 c0 -44 -4 -80 -9 -80 -32
0 -50 110 -22 143 25 31 31 18 31 -63z m1230 0 c0 -23 -8 -47 -20 -61 l-19
-24 0 85 0 85 19 -24 c12 -14 20 -38 20 -61z m-1429 40 c23 -13 26 -62 3 -80
-24 -21 -68 -1 -72 31 -3 26 19 59 39 59 6 0 19 -5 30 -10z m1630 0 c23 -13
26 -62 3 -80 -24 -21 -68 -1 -72 31 -3 26 19 59 39 59 6 0 19 -5 30 -10z
m-1501 -41 c0 -28 -3 -31 -22 -25 -13 3 -31 6 -41 6 -27 0 -17 33 13 41 45 12
50 10 50 -22z m1373 20 c56 -15 50 -32 -16 -44 -36 -7 -37 -7 -37 24 0 35 0
35 53 20z m-558 -199 c0 -13 -25 -15 -154 -18 -149 -2 -182 3 -166 27 4 8 56
11 163 9 132 -3 157 -5 157 -18z"/>
<path d="M924 1059 c-10 -17 13 -36 27 -22 12 12 4 33 -11 33 -5 0 -12 -5 -16
-11z m26 -3 c0 -3 -4 -8 -10 -11 -5 -3 -10 -1 -10 4 0 6 5 11 10 11 6 0 10 -2
10 -4z"/>
<path d="M735 998 c-11 -6 -23 -16 -27 -22 -4 -6 -8 -81 -8 -167 0 -138 2
-159 19 -180 25 -31 88 -30 113 1 16 19 18 43 18 177 0 150 -1 155 -25 178
-26 27 -58 31 -90 13z m65 -188 c0 -134 -2 -162 -15 -166 -8 -4 -22 -1 -30 6
-12 10 -15 41 -15 150 0 76 3 145 6 154 3 9 17 16 30 16 l24 0 0 -160z"/>
<path d="M921 908 c-1 -22 11 -29 29 -18 13 8 13 11 1 22 -10 10 -12 10 -7 1
4 -7 3 -13 -3 -13 -5 0 -12 6 -14 13 -3 7 -6 6 -6 -5z"/>
<path d="M927 774 c-14 -14 -7 -35 11 -32 9 2 17 10 17 17 0 16 -18 25 -28 15z
m23 -14 c0 -5 -4 -10 -10 -10 -5 0 -10 5 -10 10 0 6 5 10 10 10 6 0 10 -4 10
-10z"/>
<path d="M921 618 c-1 -22 18 -33 32 -19 8 8 7 14 -2 24 -11 10 -13 10 -7 0 4
-7 3 -13 -3 -13 -5 0 -12 6 -14 13 -3 7 -6 6 -6 -5z"/>
<path d="M922 323 c4 -21 33 -25 33 -3 0 8 -8 16 -18 18 -14 3 -18 -1 -15 -15z
m28 3 c0 -3 -4 -8 -10 -11 -5 -3 -10 -1 -10 4 0 6 5 11 10 11 6 0 10 -2 10 -4z"/>
<path d="M1046 1108 c3 -5 10 -6 15 -3 13 9 11 12 -6 12 -8 0 -12 -4 -9 -9z"/>
<path d="M1197 1003 c-4 -3 -7 -90 -7 -193 0 -195 5 -219 42 -199 16 9 18 25
18 192 0 129 -4 187 -12 195 -13 13 -31 16 -41 5z"/>
<path d="M1057 984 c4 -12 3 -15 -5 -10 -7 4 -12 2 -12 -3 0 -6 7 -11 15 -11
17 0 20 25 5 35 -6 4 -7 -1 -3 -11z"/>
<path d="M1048 843 c7 -3 16 -2 19 1 4 3 -2 6 -13 5 -11 0 -14 -3 -6 -6z"/>
<path d="M1040 818 c0 -4 4 -8 9 -8 6 0 12 4 15 8 3 5 -1 9 -9 9 -8 0 -15 -4
-15 -9z"/>
<path d="M1046 702 c-3 -5 1 -9 9 -9 8 0 12 4 9 9 -3 4 -7 8 -9 8 -2 0 -6 -4
-9 -8z"/>
<path d="M1048 673 c7 -3 16 -2 19 1 4 3 -2 6 -13 5 -11 0 -14 -3 -6 -6z"/>
<path d="M1045 380 c4 -6 11 -8 16 -5 14 9 11 15 -7 15 -8 0 -12 -5 -9 -10z"/>
<path d="M150 661 c0 -19 40 -34 56 -20 8 6 14 16 14 21 0 6 -6 5 -14 -1 -11
-9 -20 -10 -35 -1 -13 7 -21 7 -21 1z"/>
<path d="M1780 661 c0 -19 40 -34 56 -20 8 6 14 16 14 21 0 6 -6 5 -14 -1 -11
-9 -20 -10 -35 -1 -13 7 -21 7 -21 1z"/>
</g>
</svg>
